<svg width="126" height="31" viewBox="0 0 126 31" fill="none" xmlns="http://www.w3.org/2000/svg">
<path d="M116.996 24.12C115.004 24.12 113.48 23.676 112.424 22.788C111.392 21.876 110.876 20.7 110.876 19.26C110.876 18.108 111.14 17.136 111.668 16.344C112.22 15.528 113.204 14.916 114.62 14.508C116.036 14.076 118.028 13.86 120.596 13.86H121.136C121.136 11.7 120.836 10.2 120.236 9.36C119.636 8.52 118.796 8.1 117.716 8.1C116.9 8.1 116.168 8.304 115.52 8.712C114.872 9.12 114.404 9.996 114.116 11.34H112.136C112.136 10.716 112.172 10.08 112.244 9.432C112.34 8.784 112.604 8.22 113.036 7.74C113.468 7.26 114.176 6.936 115.16 6.768C116.168 6.576 117.26 6.48 118.436 6.48C120.788 6.48 122.6 7.104 123.872 8.352C125.168 9.6 125.816 11.496 125.816 14.04V23.76H122.756L121.496 22.14H121.316C121.196 22.332 121.04 22.512 120.848 22.68C120.68 22.848 120.5 23.004 120.308 23.148C119.972 23.412 119.528 23.64 118.976 23.832C118.424 24.024 117.764 24.12 116.996 24.12ZM118.076 22.32C118.628 22.32 119.084 22.2 119.444 21.96C119.828 21.72 120.152 21.456 120.416 21.168C120.728 20.832 120.968 20.436 121.136 19.98V15.48H120.596C118.868 15.48 117.62 15.792 116.852 16.416C116.108 17.04 115.736 17.988 115.736 19.26C115.736 20.268 115.94 21.036 116.348 21.564C116.78 22.068 117.356 22.32 118.076 22.32Z" fill="#CFA3EF"/>
<path d="M95.9076 30.96V29.7C97.1556 29.7 98.1996 29.46 99.0396 28.98C99.8796 28.5 100.564 27.576 101.092 26.208L101.848 24.264L95.3676 10.08C94.5756 8.352 93.4596 7.392 92.0196 7.2V6.48H95.1876C96.2676 6.48 97.2156 6.744 98.0316 7.272C98.8476 7.776 99.4596 8.472 99.8676 9.36L104.008 18.432L108.4 6.84H110.308L103.036 26.1C102.556 27.396 102.028 28.392 101.452 29.088C100.9 29.808 100.288 30.3 99.6156 30.564C98.9436 30.828 98.1876 30.96 97.3476 30.96H95.9076Z" fill="#CFA3EF"/>
<path d="M85.8419 23.76V11.52C85.8419 10.44 85.6859 9.576 85.3739 8.928C85.0859 8.256 84.4019 7.92 83.3219 7.92H82.9619V6.84H87.2819C88.5539 6.84 89.4059 7.176 89.8379 7.848C90.2939 8.52 90.5219 9.744 90.5219 11.52V23.76H85.8419Z" fill="#CFA3EF"/>
<path d="M86.1299 4.068C86.5859 4.62 87.2699 4.896 88.1819 4.896C88.7339 4.896 89.2019 4.716 89.5859 4.356C89.9699 3.996 90.1619 3.504 90.1619 2.88C90.1619 2.16 89.9339 1.524 89.4779 0.972002C89.0459 0.420002 88.3739 0.144001 87.4619 0.144001C86.9099 0.144001 86.4419 0.324001 86.0579 0.684001C85.6739 1.044 85.4819 1.536 85.4819 2.16C85.4819 2.88 85.6979 3.516 86.1299 4.068Z" fill="#F8CB82"/>
<path d="M76.0207 23.76V4.68C76.0207 3.6 75.8647 2.736 75.5527 2.088C75.2647 1.416 74.5807 1.08 73.5007 1.08H73.1407V0H77.4607C78.7327 0 79.5847 0.336 80.0167 1.008C80.4727 1.68 80.7007 2.904 80.7007 4.68V23.76H76.0207Z" fill="#CFA3EF"/>
<path d="M66.7394 23.76V4.68C66.7394 3.6 66.5834 2.736 66.2714 2.088C65.9834 1.416 65.2994 1.08 64.2194 1.08H63.8594V0H68.1794C69.4514 0 70.3034 0.336 70.7354 1.008C71.1914 1.68 71.4194 2.904 71.4194 4.68V23.76H66.7394Z" fill="#CFA3EF"/>
<path d="M55.731 24.12C54.051 24.12 52.587 23.736 51.339 22.968C50.091 22.2 49.131 21.156 48.459 19.836C47.787 18.492 47.451 16.98 47.451 15.3C47.451 13.38 47.799 11.772 48.495 10.476C49.191 9.156 50.139 8.16 51.339 7.488C52.539 6.816 53.883 6.48 55.371 6.48C56.859 6.48 58.203 6.78 59.403 7.38C60.603 7.98 61.551 8.82 62.247 9.9C62.943 10.98 63.291 12.24 63.291 13.68C63.291 13.944 63.279 14.22 63.255 14.508C63.255 14.772 63.243 15.012 63.219 15.228L63.147 15.948H52.311C52.311 18.324 52.671 20.016 53.391 21.024C54.135 22.008 55.095 22.5 56.271 22.5C57.519 22.5 58.527 22.212 59.295 21.636C60.087 21.06 60.795 20.352 61.419 19.512L62.535 20.34C62.199 20.868 61.743 21.432 61.167 22.032C60.615 22.608 59.895 23.1 59.007 23.508C58.143 23.916 57.051 24.12 55.731 24.12ZM52.311 14.328H58.431C58.431 11.952 58.143 10.32 57.567 9.432C57.015 8.544 56.283 8.1 55.371 8.1C54.843 8.1 54.339 8.292 53.859 8.676C53.403 9.06 53.031 9.708 52.743 10.62C52.455 11.508 52.311 12.744 52.311 14.328Z" fill="#CFA3EF"/>
<path d="M19.6954 23.76V11.52C19.6954 10.44 19.5514 9.576 19.2634 8.928C18.9754 8.256 18.2914 7.92 17.2114 7.92H16.8514V6.84H20.4154C21.1354 6.84 21.7594 6.948 22.2874 7.164C22.8154 7.356 23.2114 7.704 23.4754 8.208H23.6194C24.0514 7.824 24.6394 7.44 25.3834 7.056C26.1514 6.672 27.0754 6.48 28.1554 6.48C29.0674 6.48 29.8594 6.612 30.5314 6.876C31.2034 7.116 31.7554 7.404 32.1874 7.74C32.6434 8.052 32.9554 8.316 33.1234 8.532C33.6034 8.004 34.2274 7.536 34.9954 7.128C35.7634 6.696 36.8434 6.48 38.2354 6.48C40.2274 6.48 41.7754 7.008 42.8794 8.064C43.9834 9.096 44.5354 10.776 44.5354 13.104V23.76H39.8554V13.068C39.8554 11.316 39.5794 10.08 39.0274 9.36C38.4754 8.64 37.7914 8.28 36.9754 8.28C36.3034 8.28 35.6914 8.412 35.1394 8.676C34.6114 8.94 34.1914 9.264 33.8794 9.648C33.9274 9.744 33.9754 9.864 34.0234 10.008C34.0714 10.128 34.1194 10.272 34.1674 10.44C34.2394 10.704 34.2994 11.064 34.3474 11.52C34.4194 11.952 34.4554 12.48 34.4554 13.104V23.76H29.7754V13.068C29.7754 11.316 29.4994 10.08 28.9474 9.36C28.3954 8.64 27.7114 8.28 26.8954 8.28C26.3434 8.28 25.8034 8.448 25.2754 8.784C24.7474 9.096 24.3634 9.408 24.1234 9.72L24.2314 10.224C24.2794 10.392 24.3154 10.596 24.3394 10.836C24.3634 11.076 24.3754 11.34 24.3754 11.628V23.76H19.6954Z" fill="#CFA3EF"/>
<path d="M6.12 24.12C4.128 24.12 2.604 23.676 1.548 22.788C0.516 21.876 0 20.7 0 19.26C0 18.108 0.264 17.136 0.792 16.344C1.344 15.528 2.328 14.916 3.744 14.508C5.16 14.076 7.152 13.86 9.72 13.86H10.26C10.26 11.7 9.96 10.2 9.36 9.36C8.76 8.52 7.92 8.1 6.84 8.1C6.024 8.1 5.292 8.304 4.644 8.712C3.996 9.12 3.528 9.996 3.24 11.34H1.26C1.26 10.716 1.296 10.08 1.368 9.432C1.464 8.784 1.728 8.22 2.16 7.74C2.592 7.26 3.3 6.936 4.284 6.768C5.292 6.576 6.384 6.48 7.56 6.48C9.912 6.48 11.724 7.104 12.996 8.352C14.292 9.6 14.94 11.496 14.94 14.04V23.76H11.88L10.62 22.14H10.44C10.32 22.332 10.164 22.512 9.972 22.68C9.804 22.848 9.624 23.004 9.432 23.148C9.096 23.412 8.652 23.64 8.1 23.832C7.548 24.024 6.888 24.12 6.12 24.12ZM7.2 22.32C7.752 22.32 8.208 22.2 8.568 21.96C8.952 21.72 9.276 21.456 9.54 21.168C9.852 20.832 10.092 20.436 10.26 19.98V15.48H9.72C7.992 15.48 6.744 15.792 5.976 16.416C5.232 17.04 4.86 17.988 4.86 19.26C4.86 20.268 5.064 21.036 5.472 21.564C5.904 22.068 6.48 22.32 7.2 22.32Z" fill="#CFA3EF"/>
</svg>
