<svg width="128" height="128" viewBox="0 0 128 128" fill="none" xmlns="http://www.w3.org/2000/svg">
<path d="M94.7645 37.9316C97.1924 40.8707 100.834 42.3402 105.69 42.3402C108.629 42.3402 111.121 41.3818 113.166 39.465C115.21 37.5482 116.233 34.9286 116.233 31.6062C116.233 27.7726 115.019 24.3862 112.591 21.4472C110.291 18.5081 106.713 17.0385 101.857 17.0385C98.9175 17.0385 96.4257 17.9969 94.3811 19.9137C92.3366 21.8305 91.3143 24.4501 91.3143 27.7726C91.3143 31.6062 92.4643 34.9925 94.7645 37.9316Z" fill="#F8CB82"/>
<path d="M44.3528 110.961C33.7466 110.961 25.6322 108.597 20.0096 103.869C14.5148 99.0134 11.7673 92.7519 11.7673 85.0847C11.7673 78.951 13.173 73.7756 15.9843 69.5587C18.9234 65.214 24.1626 61.9554 31.702 59.783C39.2414 57.4829 49.8477 56.3328 63.5208 56.3328H66.396C66.396 44.8321 64.7986 36.8454 61.604 32.3729C58.4093 27.9004 53.9368 25.6641 48.1864 25.6641C43.8417 25.6641 39.9442 26.7503 36.494 28.9227C33.0438 31.095 30.5519 35.7592 29.0185 42.9153H18.4761C18.4761 39.5928 18.6678 36.2065 19.0512 32.7563C19.5623 29.306 20.968 26.303 23.2681 23.7473C25.5683 21.1916 29.338 19.4665 34.5772 18.572C39.9442 17.5497 45.7585 17.0385 52.02 17.0385C64.5431 17.0385 74.1909 20.361 80.9636 27.0059C87.8641 33.6508 91.3143 43.7459 91.3143 57.2912V109.045H75.0215L68.3128 100.419H67.3544C66.7154 101.441 65.8848 102.4 64.8625 103.294C63.968 104.189 63.0096 105.019 61.9874 105.786C60.1983 107.192 57.8343 108.406 54.8952 109.428C51.9561 110.45 48.442 110.961 44.3528 110.961ZM50.1032 101.377C53.0423 101.377 55.4703 100.739 57.387 99.4607C59.4316 98.1828 61.1567 96.7772 62.5624 95.2437C64.2236 93.4547 65.5015 91.3462 66.396 88.9183V64.9584H63.5208C54.3202 64.9584 47.6753 66.6196 43.5861 69.9421C39.6248 73.2645 37.6441 78.3121 37.6441 85.0847C37.6441 90.4517 38.7303 94.5409 40.9026 97.3522C43.2028 100.036 46.2696 101.377 50.1032 101.377Z" fill="#CFA3EF"/>
</svg>
